<mxfile host="app.diagrams.net" modified="2023-01-04T14:06:02.517Z" agent="5.0 (X11)" etag="hJfMbR6KMfdO_WYGj8aT" version="20.8.0" type="github">
  <diagram id="6IpJzxctdk1KV1eEZQXn" name="Page-1">
    <mxGraphModel dx="2882" dy="1126" grid="1" gridSize="10" guides="1" tooltips="1" connect="1" arrows="1" fold="1" page="1" pageScale="1" pageWidth="850" pageHeight="1100" math="0" shadow="0">
      <root>
        <mxCell id="0" />
        <mxCell id="1" parent="0" />
        <mxCell id="r2yNoiYbQeCpv3nFTYzb-10" value="" style="rounded=0;whiteSpace=wrap;html=1;fontSize=18;" vertex="1" parent="1">
          <mxGeometry x="1560" y="665" width="430" height="60" as="geometry" />
        </mxCell>
        <mxCell id="r2yNoiYbQeCpv3nFTYzb-4" value="" style="rounded=0;whiteSpace=wrap;html=1;fontSize=18;" vertex="1" parent="1">
          <mxGeometry x="1220" y="665" width="320" height="60" as="geometry" />
        </mxCell>
        <mxCell id="fvO3KNyIIssVne_HvKWL-1" value="&lt;div&gt;IH&lt;/div&gt;&lt;div&gt;10.50.X.X&lt;br&gt;&lt;/div&gt;" style="rounded=0;whiteSpace=wrap;html=1;" parent="1" vertex="1">
          <mxGeometry x="1050" y="260" width="80" height="70" as="geometry" />
        </mxCell>
        <mxCell id="fvO3KNyIIssVne_HvKWL-2" value="&lt;div&gt;INITIAL&lt;/div&gt;&lt;div&gt;PIVOT&lt;/div&gt;&lt;div&gt;22(f)&lt;br&gt;&lt;/div&gt;&lt;div&gt;23&lt;/div&gt;&lt;div&gt;80&lt;br&gt;&lt;/div&gt;" style="rounded=0;whiteSpace=wrap;html=1;" parent="1" vertex="1">
          <mxGeometry x="1200" y="240" width="120" height="110" as="geometry" />
        </mxCell>
        <mxCell id="fvO3KNyIIssVne_HvKWL-3" value="&lt;div align=&quot;left&quot;&gt;&lt;font style=&quot;font-size: 18px;&quot;&gt;&lt;b&gt;&lt;u&gt;NET RECON METHODOLOGY&lt;/u&gt;&lt;/b&gt;&lt;/font&gt;&lt;/div&gt;&lt;div align=&quot;left&quot;&gt;&lt;font style=&quot;font-size: 18px;&quot; size=&quot;3&quot;&gt;1.) HOST DISCOVERY (PING SWEEP, NMAP, SCAN.SH, NC)&lt;/font&gt;&lt;/div&gt;&lt;div align=&quot;left&quot;&gt;&lt;font size=&quot;3&quot;&gt;nmap -Pn 192.168.0.1 -p 21-23,80 -T4 | egrep -i &quot;scan report|open|succ&quot;&lt;br&gt;&lt;/font&gt;&lt;/div&gt;&lt;div align=&quot;left&quot;&gt;&lt;font size=&quot;3&quot;&gt;nmap -Pn 192.168.0.1,27,55 - p 21-23,80 (More than one ip)&lt;br&gt;&lt;/font&gt;&lt;/div&gt;&lt;div align=&quot;left&quot;&gt;&lt;font size=&quot;3&quot;&gt;nmap -Pn 192.168.0.1/24 -p 21-23,80 -T4 (scan whole subnet)&lt;/font&gt;&lt;/div&gt;&lt;div align=&quot;left&quot;&gt;&lt;font size=&quot;3&quot;&gt;for i in {1..254} ;do (ping -c 1 192.168.1.$i | grep &quot;bytes from&quot; &amp;amp;) ;done&lt;br&gt;&lt;/font&gt;&lt;/div&gt;&lt;div align=&quot;left&quot;&gt;&lt;font size=&quot;3&quot;&gt;&lt;br&gt;&lt;/font&gt;&lt;/div&gt;&lt;div align=&quot;left&quot;&gt;&lt;font size=&quot;3&quot;&gt;2.) PORT DISCOVERY (NMAP, NC, SCAN.SH)&lt;/font&gt;&lt;/div&gt;&lt;div align=&quot;left&quot;&gt;&lt;font size=&quot;3&quot;&gt;3.) PORT VALIDATION (BANNER GRAB WITH NC)&lt;/font&gt;&lt;/div&gt;&lt;div align=&quot;left&quot;&gt;&lt;font size=&quot;3&quot;&gt;nc &amp;lt;ip&amp;gt; &amp;lt;port&amp;gt;&lt;br&gt;&lt;/font&gt;&lt;/div&gt;&lt;div align=&quot;left&quot;&gt;&lt;font size=&quot;3&quot;&gt;4.) FOLLOW-ON ACTIONS BASED ON PORTS FOUND:&lt;/font&gt;&lt;/div&gt;&lt;div align=&quot;left&quot;&gt;&lt;font size=&quot;3&quot;&gt;&lt;span style=&quot;&quot;&gt; &lt;/span&gt;4a.) IF 22 OR 23, CONNECT TO IT AND DO PASSIVE RECON&lt;/font&gt;&lt;/div&gt;&lt;div align=&quot;left&quot;&gt;&lt;font size=&quot;3&quot;&gt;&lt;span style=&quot;&quot;&gt; &lt;/span&gt;4b.) IF 21 OR 80, PULL THE FILES (wget -r http://ip_address; wget -r ftp://ip_address)&lt;/font&gt;&lt;/div&gt;&lt;div align=&quot;left&quot;&gt;&lt;font size=&quot;3&quot;&gt;&lt;u&gt;&lt;br&gt;&lt;/u&gt;&lt;/font&gt;&lt;/div&gt;&lt;div align=&quot;left&quot;&gt;&lt;font size=&quot;3&quot;&gt;&lt;b&gt;&lt;u&gt;SCAN METHODOLOGY&lt;/u&gt;&lt;/b&gt;&lt;/font&gt;&lt;/div&gt;&lt;div align=&quot;left&quot;&gt;&lt;font size=&quot;3&quot;&gt;1.) QUICK SCAN PORTS: 21-23 80&lt;/font&gt;&lt;/div&gt;&lt;div align=&quot;left&quot;&gt;&lt;font size=&quot;3&quot;&gt;2.) WELL-KNOWN PORTS: 0-1023&lt;/font&gt;&lt;/div&gt;&lt;div align=&quot;left&quot;&gt;&lt;font size=&quot;3&quot;&gt;3.) CHUNKS OF 2000 (1024-3024)&lt;/font&gt;&lt;/div&gt;&lt;div align=&quot;left&quot;&gt;&lt;font size=&quot;3&quot;&gt;4.) FIRST 10000 PORTS&lt;/font&gt;&lt;/div&gt;&lt;div align=&quot;left&quot;&gt;&lt;font size=&quot;3&quot;&gt;5.) ALL PORTS&lt;br&gt;&lt;/font&gt;&lt;/div&gt;&lt;div align=&quot;left&quot;&gt;&lt;font size=&quot;3&quot;&gt;&lt;br&gt;&lt;/font&gt;&lt;/div&gt;&lt;div align=&quot;left&quot;&gt;&lt;font size=&quot;3&quot;&gt;&lt;b&gt;&lt;u&gt;PASSIVE RECON METHODOLOGY&lt;/u&gt;&lt;/b&gt;&lt;/font&gt;&lt;/div&gt;&lt;div align=&quot;left&quot;&gt;&lt;font size=&quot;3&quot;&gt;1.) HOSTNAME&lt;/font&gt;&lt;/div&gt;&lt;div align=&quot;left&quot;&gt;&lt;font size=&quot;3&quot;&gt;2.) Interfaces/subnets? ip a&lt;/font&gt;&lt;/div&gt;&lt;div align=&quot;left&quot;&gt;&lt;font size=&quot;3&quot;&gt;3.) Neighbors? arp =a, ip neigh&lt;/font&gt;&lt;/div&gt;&lt;div align=&quot;left&quot;&gt;&lt;font size=&quot;3&quot;&gt;4.) Files of Interest? find, ls, cat&lt;/font&gt;&lt;/div&gt;&lt;div align=&quot;left&quot;&gt;&lt;font size=&quot;3&quot;&gt;5.) Other listening ports? netstat -nltp or ss -nltp&lt;br&gt;&lt;/font&gt;&lt;/div&gt;&lt;div align=&quot;left&quot;&gt;&lt;font size=&quot;3&quot;&gt;6.) Available Tools? which tcpdump wireshark nmap nc telnet wget&lt;br&gt;&lt;/font&gt;&lt;/div&gt;&lt;div align=&quot;left&quot;&gt;&lt;font size=&quot;3&quot;&gt;&lt;br&gt;&lt;/font&gt;&lt;/div&gt;" style="text;html=1;strokeColor=none;fillColor=none;align=left;verticalAlign=middle;whiteSpace=wrap;rounded=0;" parent="1" vertex="1">
          <mxGeometry width="740" height="690" as="geometry" />
        </mxCell>
        <mxCell id="fvO3KNyIIssVne_HvKWL-4" value="192.168.0.29" style="rounded=0;whiteSpace=wrap;html=1;" parent="1" vertex="1">
          <mxGeometry x="1390" y="260" width="80" height="70" as="geometry" />
        </mxCell>
        <mxCell id="fvO3KNyIIssVne_HvKWL-5" value="192.168.0.27" style="rounded=0;whiteSpace=wrap;html=1;" parent="1" vertex="1">
          <mxGeometry x="1220" y="90" width="80" height="70" as="geometry" />
        </mxCell>
        <mxCell id="r2yNoiYbQeCpv3nFTYzb-2" value="&lt;div align=&quot;left&quot;&gt;&lt;b&gt;&lt;u&gt;Definitions:&lt;/u&gt;&lt;/b&gt;&lt;/div&gt;&lt;div align=&quot;left&quot;&gt;-L is a local port forward&lt;br&gt;&lt;/div&gt;" style="text;html=1;strokeColor=none;fillColor=none;align=left;verticalAlign=middle;whiteSpace=wrap;rounded=0;fontSize=18;" vertex="1" parent="1">
          <mxGeometry x="1000" y="760" width="580" height="210" as="geometry" />
        </mxCell>
        <mxCell id="r2yNoiYbQeCpv3nFTYzb-3" value="&lt;font style=&quot;font-size: 24px;&quot;&gt;ssh &amp;nbsp; &amp;nbsp; -p port&amp;nbsp;&amp;nbsp;&amp;nbsp;&amp;nbsp; user@IP_Address&lt;/font&gt;" style="text;html=1;strokeColor=none;fillColor=none;align=center;verticalAlign=middle;whiteSpace=wrap;rounded=0;fontSize=18;" vertex="1" parent="1">
          <mxGeometry x="1100" y="680" width="500" height="30" as="geometry" />
        </mxCell>
        <mxCell id="r2yNoiYbQeCpv3nFTYzb-6" value="&lt;font style=&quot;font-size: 14px;&quot;&gt;CONNECTION PIECE&lt;br&gt;&lt;/font&gt;" style="text;html=1;strokeColor=none;fillColor=none;align=center;verticalAlign=middle;whiteSpace=wrap;rounded=0;fontSize=24;" vertex="1" parent="1">
          <mxGeometry x="1303.5" y="635" width="165" height="30" as="geometry" />
        </mxCell>
        <mxCell id="r2yNoiYbQeCpv3nFTYzb-8" value="-L" style="text;html=1;strokeColor=none;fillColor=none;align=center;verticalAlign=middle;whiteSpace=wrap;rounded=0;fontSize=24;" vertex="1" parent="1">
          <mxGeometry x="1550" y="680" width="60" height="30" as="geometry" />
        </mxCell>
        <mxCell id="r2yNoiYbQeCpv3nFTYzb-9" value="PORT:IP_ADDRESS:PORT" style="text;html=1;strokeColor=none;fillColor=none;align=center;verticalAlign=middle;whiteSpace=wrap;rounded=0;fontSize=24;" vertex="1" parent="1">
          <mxGeometry x="1740" y="680" width="60" height="30" as="geometry" />
        </mxCell>
        <mxCell id="r2yNoiYbQeCpv3nFTYzb-12" value="&lt;font style=&quot;font-size: 14px;&quot;&gt;TUNNEL PIECE&lt;br&gt;&lt;/font&gt;" style="text;html=1;strokeColor=none;fillColor=none;align=center;verticalAlign=middle;whiteSpace=wrap;rounded=0;fontSize=24;" vertex="1" parent="1">
          <mxGeometry x="1662.5" y="630" width="165" height="30" as="geometry" />
        </mxCell>
        <mxCell id="r2yNoiYbQeCpv3nFTYzb-13" value="-NT" style="text;html=1;strokeColor=none;fillColor=none;align=center;verticalAlign=middle;whiteSpace=wrap;rounded=0;fontSize=24;" vertex="1" parent="1">
          <mxGeometry x="1930" y="680" width="60" height="30" as="geometry" />
        </mxCell>
        <mxCell id="r2yNoiYbQeCpv3nFTYzb-14" style="edgeStyle=orthogonalEdgeStyle;rounded=0;orthogonalLoop=1;jettySize=auto;html=1;exitX=0.5;exitY=1;exitDx=0;exitDy=0;fontSize=24;" edge="1" parent="1" source="r2yNoiYbQeCpv3nFTYzb-2" target="r2yNoiYbQeCpv3nFTYzb-2">
          <mxGeometry relative="1" as="geometry" />
        </mxCell>
      </root>
    </mxGraphModel>
  </diagram>
</mxfile>
